<?xml version="1.0" standalone="no"?>
<!DOCTYPE svg PUBLIC "-//W3C//DTD SVG 20010904//EN"
 "http://www.w3.org/TR/2001/REC-SVG-20010904/DTD/svg10.dtd">
<svg version="1.0" xmlns="http://www.w3.org/2000/svg"
 width="957.000000pt" height="957.000000pt" viewBox="0 0 957.000000 957.000000"
 preserveAspectRatio="xMidYMid meet">

<g transform="translate(0.000000,957.000000) scale(0.100000,-0.100000)"
fill="#000000" stroke="none">
<path d="M0 4785 l0 -4785 4785 0 4785 0 0 4785 0 4785 -4785 0 -4785 0 0
-4785z m3845 2489 c11 -3 109 -126 225 -282 113 -152 226 -303 252 -336 26
-34 124 -164 218 -291 94 -126 176 -237 183 -245 7 -8 59 -78 117 -155 58 -77
110 -147 117 -155 7 -8 56 -73 109 -145 55 -75 103 -130 113 -130 9 0 81 70
161 155 80 85 156 166 170 180 14 14 75 80 135 145 61 66 126 136 145 156 19
20 82 87 140 150 93 101 257 275 729 779 75 79 144 152 154 162 16 17 35 18
215 16 141 -2 197 -6 197 -15 0 -6 -20 -33 -45 -60 -124 -135 -464 -499 -539
-578 -48 -49 -144 -153 -215 -230 -71 -77 -164 -176 -205 -220 -75 -80 -278
-297 -341 -365 -18 -19 -60 -65 -94 -101 -314 -335 -411 -442 -411 -449 0 -5
7 -19 15 -30 27 -38 1463 -1959 1686 -2255 257 -341 305 -408 302 -424 -3 -15
-66 -16 -703 -19 -488 -1 -708 1 -725 9 -14 6 -43 36 -66 67 -22 31 -126 172
-231 312 -104 140 -310 417 -457 615 -148 198 -294 393 -325 433 -31 41 -78
104 -106 142 -116 157 -198 262 -211 267 -7 3 -46 -30 -91 -78 -43 -46 -118
-127 -168 -179 -229 -243 -360 -383 -365 -390 -3 -4 -66 -72 -141 -151 -75
-79 -209 -223 -299 -319 -542 -581 -673 -719 -687 -724 -26 -10 -381 -7 -388
4 -9 15 3 31 85 117 42 43 136 143 211 223 74 80 149 159 165 175 16 17 56 60
88 95 32 36 91 99 130 140 39 42 130 139 201 215 72 77 164 176 206 220 238
252 543 577 599 638 36 39 107 116 158 170 50 54 92 105 92 113 0 11 -126 186
-235 327 -26 33 -474 635 -503 675 -9 13 -57 76 -106 140 -48 65 -98 130 -110
146 -86 117 -716 960 -837 1120 -83 110 -148 205 -145 212 4 12 127 14 708 14
387 0 712 -3 723 -6z"/>
<path d="M3040 6951 c0 -6 190 -263 423 -573 232 -310 429 -573 437 -585 8
-12 136 -183 284 -380 148 -197 362 -482 476 -633 113 -151 223 -297 244 -325
21 -27 46 -61 56 -75 10 -14 55 -74 101 -135 120 -159 393 -523 723 -965 159
-212 296 -393 305 -403 16 -17 42 -18 346 -17 180 0 331 3 336 6 8 4 -28 56
-156 224 -19 25 -79 104 -132 176 -98 131 -224 299 -492 657 -80 105 -258 343
-396 527 -138 184 -366 487 -506 674 -139 186 -270 360 -289 386 -19 27 -147
198 -285 382 -137 183 -341 454 -452 603 -111 148 -206 275 -210 280 -4 6 -35
46 -68 90 -33 44 -64 83 -70 87 -15 11 -675 10 -675 -1z"/>
</g>
</svg>
